<?xml version="1.0" encoding="utf-8"?>
<!-- Generator: Adobe Illustrator 24.2.3, SVG Export Plug-In . SVG Version: 6.00 Build 0)  -->
<svg version="1.1" id="icon" xmlns="http://www.w3.org/2000/svg" xmlns:xlink="http://www.w3.org/1999/xlink" x="0px" y="0px"
	 viewBox="0 0 512 512" style="enable-background:new 0 0 512 512;" xml:space="preserve">
<style type="text/css">
	.st0{fill:#F0F5F9;}
	.st1{fill:#D9E2E9;}
	.st2{fill:#2F3A5A;}
	.st3{fill:#FFC943;}
	.st4{fill:#F7B521;}
	.st5{font-family:'Helvetica-Oblique';}
	.st6{font-size:149.4438px;}
	.st7{fill:none;}
</style>
<path class="st0" d="M111.1,139.9c-4.3-42.9,27-81,69.9-85.3c3.2-0.3,6.5-0.4,9.8-0.4c13.9,0.3,27.5,4.4,39.3,11.8
	c20.8-37.7,68.3-51.4,106.1-30.6c28.9,15.9,44.6,48.3,39.3,80.9h0.7c51.2,1.3,91.7,43.8,90.4,95c-1.3,51.2-43.8,91.7-95,90.4
	c-23.8-0.6-46.5-10.3-63.4-27.2c-23.5,36.2-71.9,46.5-108,23c-9.7-6.3-17.8-14.6-23.9-24.4c-30.8,30.2-80.2,29.8-110.4-1
	s-29.8-80.2,1-110.4C78.9,149.7,94.4,142.1,111.1,139.9L111.1,139.9z"/>
<path class="st1" d="M119.7,295.3c21.2,0.6,41.6-7.5,56.7-22.4c22.7,36.7,70.8,48,107.5,25.4c9.8-6.1,18.2-14.2,24.4-23.9
	c36.2,36.2,94.9,36.3,131.2,0.1c20.9-20.9,30.6-50.4,26.1-79.6c-7.7,50.6-54.9,85.4-105.5,77.7c-19.6-3-37.7-12.2-51.7-26.2
	c-23.5,36.2-71.8,46.5-108,23c-9.7-6.3-17.8-14.6-23.9-24.4c-30.8,30.2-80.2,29.8-110.4-1c-10.9-11.1-18.3-25.3-21.1-40.7
	c-0.7,4-1.2,8-1.2,12C42.5,258.4,76.5,294.2,119.7,295.3L119.7,295.3L119.7,295.3z"/>
<path class="st2" d="M342.3,137.2c-1.9,0-3.4-1.5-3.4-3.4c0-1,0.4-1.9,1.1-2.5c10.2-8.9,22.4-15.2,35.5-18.4
	c1.8-0.3,3.6,0.9,3.9,2.7c0.3,1.8-0.8,3.5-2.6,3.9c-12,3-23.1,8.7-32.4,16.8C343.9,136.9,343.1,137.2,342.3,137.2L342.3,137.2z"/>
<path class="st1" d="M152.9,64.2c0,0-49.4,33.4-10.1,80.4c-0.4,0.4-0.8,0.8-1.2,1.2c-11.4-7.4-12.3-4.1-28.6-6
	C113,139.9,101.8,85.2,152.9,64.2z"/>
<path class="st2" d="M242.9,313.3c-0.7,0-1.4,0-2.1,0c-26.1-0.6-50.2-13.7-65-35.2c-33.6,29.9-85.1,26.8-115-6.8s-26.8-85.1,6.8-115
	c11.3-10,25.1-16.7,40-19.3c-0.1-2.3-0.2-4.6-0.1-6.8c1.1-45,38.5-80.5,83.5-79.4c13.4,0.3,26.4,4,38.1,10.5
	c23.5-38.4,73.6-50.5,112-27c24.8,15.2,39.7,42.4,38.9,71.5c-0.1,2.3-0.2,4.7-0.5,7.1c53,3,93.5,48.4,90.5,101.3
	c-3,53-48.4,93.5-101.3,90.5c-22.2-1.3-43.3-10.2-59.7-25.3C293.6,300.8,269,313.4,242.9,313.3z M177,267.6l2.2,3.6
	c21.7,35.1,67.8,46,102.9,24.3c9.4-5.8,17.4-13.6,23.4-22.9l2.3-3.5l2.9,2.9c34.8,34.9,91.4,35,126.3,0.2s35-91.4,0.2-126.3
	c-16.2-16.3-38.1-25.7-61-26.2h-0.7l-3.8-0.1l0.6-3.8c6.6-40.7-21.1-79-61.8-85.6c-3.4-0.5-6.8-0.9-10.2-0.9c-0.6,0-1.3,0-1.9,0
	c-27.2,0-52.2,14.7-65.3,38.5l-1.7,3.1l-3-1.9c-35-21.9-81.1-11.2-102.9,23.8c-8.7,14-12.6,30.5-11,46.9l0.3,3.2l-3.2,0.4
	c-40.9,5.5-69.6,43.2-64,84.1c5.5,40.9,43.2,69.6,84.1,64c16-2.2,30.9-9.5,42.4-20.8L177,267.6z"/>
<path class="st2" d="M140.3,148c-0.4,0-0.7-0.1-1.1-0.2c-9-3-18.5-4.6-28-4.6c-1.9,0.1-3.4-1.4-3.5-3.2s1.4-3.4,3.2-3.5
	c10.3,0,20.6,1.6,30.4,5c1.8,0.6,2.7,2.5,2.1,4.3C143,147.1,141.7,148,140.3,148L140.3,148z"/>
<path class="st3" d="M138.3,170.2h231.6v143.4H138.3V170.2z"/>
<path class="st4" d="M369.9,171.8v143.4H138.3v-15.8h216.8V171.8H369.9z"/>
<g>
	<path class="st2" d="M369.9,315.3H138.3c-1.9,0-3.4-1.5-3.4-3.4V168.5c0-1.9,1.5-3.4,3.4-3.4h231.6c1.9,0,3.4,1.5,3.4,3.4v143.4
		C373.3,313.8,371.8,315.3,369.9,315.3L369.9,315.3z M141.6,308.5h224.9V171.8H141.6V308.5z"/>
	<path class="st2" d="M254.1,263.4c-0.8,0-1.5-0.3-2.1-0.7l-115.8-91.6c-1.5-1.1-1.8-3.2-0.7-4.7s3.2-1.8,4.7-0.7
		c0.1,0,0.1,0.1,0.2,0.1l113.7,90l113.7-90c1.4-1.2,3.5-1,4.7,0.5c1.2,1.4,1,3.5-0.5,4.7l-0.1,0.1l-115.8,91.6
		C255.6,263.2,254.8,263.4,254.1,263.4L254.1,263.4z"/>
	<path class="st2" d="M138.3,315.3c-1.9,0-3.4-1.5-3.4-3.4c0-1,0.5-2,1.3-2.7l91.8-70.8c1.5-1.1,3.6-0.9,4.7,0.6s0.9,3.6-0.6,4.7
		l0,0l-91.8,70.8C139.7,315,139,315.3,138.3,315.3L138.3,315.3z"/>
	<path class="st2" d="M369.9,315.3c-0.7,0-1.5-0.2-2-0.7l-91.8-70.8c-1.5-1.1-1.7-3.2-0.6-4.7s3.2-1.7,4.7-0.6l91.8,70.8
		c1.5,1.1,1.7,3.2,0.6,4.7C371.9,314.8,370.9,315.3,369.9,315.3L369.9,315.3z"/>
</g>
<text transform="matrix(1.0556 0 0 1 36.4873 458.4404)" class="st5 st6">SEND</text>
<polygon class="st7" points="720.2,508.9 722.5,508.9 722.5,508.9 "/>
</svg>
