<?xml version="1.0" encoding="utf-8"?>
<!-- Generator: Adobe Illustrator 24.2.3, SVG Export Plug-In . SVG Version: 6.00 Build 0)  -->
<svg version="1.1" id="Layer_1" xmlns="http://www.w3.org/2000/svg" xmlns:xlink="http://www.w3.org/1999/xlink" x="0px" y="0px"
	 viewBox="0 0 200 200" style="enable-background:new 0 0 200 200;" xml:space="preserve">
<style type="text/css">
	.st0{fill:#FAD208;}
	.st1{fill:#FAA51A;}
	.st2{fill:#F5F6F6;}
	.st3{fill:#E6E6E5;}
	.st4{fill:#51768D;}
	.st5{fill:#6DC394;}
	.st6{fill:#F16570;}
</style>
<g>
	<path class="st0" d="M174,21.4v168.7c0,2.1-1.8,3.9-4.1,3.9H35.6c-2.2,0-4.1-1.7-4.1-3.9V21.4c0-2.1,1.8-3.9,4.1-3.9h134.4
		C172.2,17.5,174,19.2,174,21.4z"/>
	<path class="st1" d="M38,36.5v148.6c0,1.5,1.3,2.7,2.9,2.7h81.4c1.1,0,2.1-0.4,2.9-1.1l31.1-29.6V34.4H46l-0.6-4.7l-5.5,3.6
		C38.6,34,38,35.2,38,36.5z"/>
	<path class="st2" d="M161.8,32.8v118.8l-24.2,8.4l-8.1,22.3H47.7c-2.2,0-4.1-1.7-4.1-3.9V32.8c0-2.1,1.8-3.9,4.1-3.9h110.1
		C160,29,161.8,30.7,161.8,32.8z"/>
	<path class="st3" d="M161.8,151.6l-32.3,30.8v-26.9c0-2.1,1.8-3.9,4.1-3.9H161.8z"/>
	<path class="st3" d="M143.4,29v7.5c0,5.3-4.5,9.6-10.1,9.6H72.2c-5.5,0-10.1-4.3-10.1-9.6V29H143.4z"/>
	<path class="st1" d="M62.1,17.5h81.2v11.6H62.1V17.5z"/>
	<path class="st4" d="M137.3,17.5v19c0,2.1-1.8,3.9-4.1,3.9H72.2c-2.2,0-4.1-1.7-4.1-3.9v-19h22.4c-0.3-1.2-0.4-2.5-0.3-3.9
		c0.5-5.8,5.5-10.4,11.5-10.8c7.2-0.5,13.3,5,13.3,11.9c0,0.9-0.1,1.8-0.3,2.7H137.3z"/>
	<path class="st5" d="M71.8,79c-0.7,0-1.5-0.3-2.1-0.8l-10.2-9.3c-1.2-1.1-1.3-2.9-0.1-4.1s3.1-1.2,4.3-0.1l8,7.3L84,58.5
		c1.1-1.2,3-1.3,4.3-0.3c1.3,1,1.4,2.8,0.3,4.1L74.1,78c-0.5,0.6-1.3,0.9-2.1,1C71.9,79,71.9,79,71.8,79L71.8,79z"/>
	<path class="st4" d="M141.3,71.2H98.5c-1.7,0-3-1.3-3-2.8c0-1.6,1.4-2.8,3-2.8h42.7c1.7,0,3,1.3,3,2.8
		C144.3,69.9,143,71.2,141.3,71.2z"/>
	<path class="st5" d="M71.8,112.9c-0.7,0-1.5-0.3-2.1-0.8l-10.2-9.3c-1.2-1.1-1.3-2.9-0.1-4.1s3.1-1.2,4.3-0.1l8,7.3L84,92.5
		c1.1-1.2,3-1.3,4.3-0.2c1.3,1,1.4,2.8,0.2,4.1l-14.6,15.7c-0.5,0.6-1.3,0.9-2.1,1C71.9,112.9,71.9,112.9,71.8,112.9L71.8,112.9z"/>
	<g>
		<path class="st4" d="M141.3,104.9H98.5c-1.7,0-3-1.3-3-2.8c0-1.6,1.4-2.8,3-2.8h42.7c1.7,0,3,1.3,3,2.8
			C144.3,103.7,143,104.9,141.3,104.9z"/>
		<path class="st4" d="M141.3,139.9h-7c-1.7,0-3-1.3-3-2.8c0-1.6,1.4-2.8,3-2.8h7c1.7,0,3,1.3,3,2.8
			C144.3,138.7,143,139.9,141.3,139.9z"/>
		<path class="st4" d="M120.1,139.9H98.5c-1.7,0-3-1.3-3-2.8c0-1.6,1.4-2.8,3-2.8h21.6c1.7,0,3,1.3,3,2.8
			C123.2,138.7,121.8,139.9,120.1,139.9z"/>
	</g>
	<path class="st6" d="M82.8,148.8H64.2c-1.7,0-3-1.3-3-2.8v-17.7c0-1.6,1.4-2.8,3-2.8h18.5c1.7,0,3,1.3,3,2.8v17.7
		C85.8,147.5,84.5,148.8,82.8,148.8z M67.2,143.1h12.5v-11.9H67.2V143.1z"/>
</g>
</svg>
