<?xml version="1.0" encoding="utf-8"?>
<!-- Generator: Adobe Illustrator 24.2.3, SVG Export Plug-In . SVG Version: 6.00 Build 0)  -->
<svg version="1.1" id="Layer_1" xmlns="http://www.w3.org/2000/svg" xmlns:xlink="http://www.w3.org/1999/xlink" x="0px" y="0px"
	 viewBox="0 0 54 54" style="enable-background:new 0 0 54 54;" xml:space="preserve">
<style type="text/css">
	.st0{fill:#010101;}
	.st1{font-family:'Arial-Black';}
	.st2{font-size:14.0893px;}
</style>
<path id="path0_fill" d="M20.8,39.6c3.7,0,6.7-2.7,6.7-6.2v-6.2h-6.7c-3.7,0-6.7,2.7-6.7,6.2S17.1,39.6,20.8,39.6z"/>
<path id="path1_fill" d="M14.1,20.7c0-3.4,3-6.2,6.7-6.2h6.7V27h-6.7C17.1,27,14.1,24.2,14.1,20.7z"/>
<path id="path1_fill_1_" d="M14.3,8.2c0-3.4,2.9-6.2,6.6-6.2h6.7v12.4h-6.7C17.3,14.3,14.3,11.6,14.3,8.2z"/>
<path id="path2_fill" d="M27.9,2h6.7c3.6,0,6.6,2.7,6.6,6.2s-3,6.2-6.7,6.2h-6.6V2z"/>
<path id="path3_fill" d="M41.3,20.7c0,3.4-3,6.2-6.7,6.2s-6.7-2.7-6.7-6.2s3-6.2,6.7-6.2S41.3,17.3,41.3,20.7z"/>
<text transform="matrix(0.7654 0 0 1 8.4521 51.6592)" class="st0 st1 st2">FIGMA</text>
</svg>
