<?xml version="1.0" encoding="utf-8"?>
<!-- Generator: Adobe Illustrator 24.2.3, SVG Export Plug-In . SVG Version: 6.00 Build 0)  -->
<svg version="1.1" id="Layer_1" xmlns="http://www.w3.org/2000/svg" xmlns:xlink="http://www.w3.org/1999/xlink" x="0px" y="0px"
	 viewBox="0 0 44 44" style="enable-background:new 0 0 44 44;" xml:space="preserve">
<style type="text/css">
	.st0{fill-rule:evenodd;clip-rule:evenodd;}
	.st1{fill:#100E0F;}
</style>
<g>
	<path class="st0" d="M22,0.5c-8.1,0-14.6,6.5-14.6,14.6c0,6.5,4.2,11.9,10,13.9c0.7,0.1,1-0.3,1-0.7c0-0.3,0-1.5,0-2.7
		c-4.1,0.9-4.9-1.7-4.9-1.7c-0.7-1.7-1.6-2.1-1.6-2.1c-1.3-0.9,0.1-0.9,0.1-0.9c1.5,0.1,2.2,1.5,2.2,1.5c1.3,2.2,3.4,1.6,4.3,1.2
		c0.1-0.9,0.5-1.6,0.9-2c-3.2-0.4-6.7-1.6-6.7-7.2c0-1.6,0.6-2.9,1.5-3.9c-0.2-0.4-0.7-1.9,0.1-3.9c0,0,1.2-0.4,4,1.5
		c1.2-0.3,2.4-0.5,3.7-0.5c1.2,0,2.5,0.2,3.7,0.5c2.8-1.9,4-1.5,4-1.5c0.8,2,0.3,3.5,0.1,3.9c0.9,1,1.5,2.3,1.5,3.9
		c0,5.6-3.4,6.9-6.7,7.2c0.5,0.5,1,1.3,1,2.7c0,2,0,3.5,0,4c0,0.4,0.3,0.8,1,0.7c5.8-1.9,10-7.4,10-13.9C36.6,7.1,30.1,0.5,22,0.5z"
		/>
	<path d="M12.9,21.5c0,0.1-0.1,0.1-0.3,0c-0.1,0-0.2-0.1-0.1-0.2c0-0.1,0.1-0.1,0.3,0C12.9,21.3,13,21.4,12.9,21.5L12.9,21.5z
		 M13.5,22.2c-0.1,0.1-0.2,0-0.3-0.1c-0.1-0.1-0.1-0.2,0-0.3c0.1-0.1,0.2,0,0.3,0.1C13.6,22,13.6,22.1,13.5,22.2L13.5,22.2z
		 M14.1,23c-0.1,0.1-0.2,0-0.3-0.1c-0.1-0.1-0.1-0.3,0-0.3c0.1-0.1,0.2,0,0.3,0.1C14.2,22.8,14.2,23,14.1,23L14.1,23z M14.9,23.8
		c-0.1,0.1-0.3,0.1-0.4-0.1c-0.1-0.1-0.2-0.3-0.1-0.4c0.1-0.1,0.3-0.1,0.4,0.1C14.9,23.6,15,23.7,14.9,23.8L14.9,23.8z M16,24.3
		c0,0.1-0.2,0.2-0.4,0.1c-0.2-0.1-0.3-0.2-0.2-0.3c0-0.1,0.2-0.2,0.4-0.1C15.9,24.1,16,24.2,16,24.3L16,24.3z M17.2,24.4
		c0,0.1-0.1,0.2-0.3,0.2c-0.2,0-0.3-0.1-0.3-0.2c0-0.1,0.1-0.2,0.3-0.2C17,24.2,17.2,24.3,17.2,24.4z M18.3,24.2
		c0,0.1-0.1,0.2-0.3,0.3c-0.2,0-0.3,0-0.3-0.2c0-0.1,0.1-0.2,0.3-0.3C18.1,24,18.3,24.1,18.3,24.2L18.3,24.2z"/>
</g>
<g>
	<path class="st1" d="M8.5,37.2H4.9c-0.1,0-0.2,0.1-0.2,0.2v1.8c0,0.1,0.1,0.2,0.2,0.2h1.4v2.2c0,0-0.3,0.1-1.2,0.1
		c-1.1,0-2.5-0.4-2.5-3.6c0-3.2,1.5-3.7,3-3.7c1.2,0,1.8,0.2,2.1,0.3c0.1,0,0.2-0.1,0.2-0.2l0.4-1.7c0-0.1,0-0.1-0.1-0.1
		c-0.1-0.1-1-0.6-3.1-0.6c-2.5,0-5,1-5,6.1c0,5,2.9,5.8,5.3,5.8c2,0,3.2-0.9,3.2-0.9c0.1,0,0.1-0.1,0.1-0.1v-5.6
		C8.7,37.3,8.6,37.2,8.5,37.2L8.5,37.2z M27.3,32.6h-2.1c-0.1,0-0.2,0.1-0.2,0.2c0,0,0,0,0,0l0,4h-3.2v-4c0-0.1-0.1-0.2-0.2-0.2
		c0,0,0,0,0,0h-2.1c-0.1,0-0.2,0.1-0.2,0.2c0,0,0,0,0,0v10.8c0,0.1,0.1,0.2,0.2,0.2h2.1c0.1,0,0.2-0.1,0.2-0.2c0,0,0,0,0,0V39h3.2
		l0,4.6c0,0.1,0.1,0.2,0.2,0.2h2.1c0.1,0,0.2-0.1,0.2-0.2c0,0,0,0,0,0V32.8C27.5,32.7,27.4,32.6,27.3,32.6z M11.1,32.8
		c-0.7,0-1.3,0.6-1.3,1.3c0,0.7,0.6,1.3,1.3,1.3c0.7,0,1.3-0.6,1.3-1.3C12.5,33.4,11.9,32.8,11.1,32.8z M12.1,36.1h-2.1
		c-0.1,0-0.2,0.1-0.2,0.2v7.2c0,0.2,0.1,0.3,0.3,0.3H12c0.2,0,0.3-0.1,0.3-0.3v-2.2v-5C12.3,36.2,12.2,36.1,12.1,36.1
		C12.1,36.1,12.1,36.1,12.1,36.1L12.1,36.1z M35.4,36.2h-2.1c-0.1,0-0.2,0.1-0.2,0.2c0,0,0,0,0,0v5.3c0,0-0.5,0.4-1.3,0.4
		c-0.7,0-0.9-0.3-0.9-1.1v-4.6c0-0.1-0.1-0.2-0.2-0.2c0,0,0,0,0,0h-2.1c-0.1,0-0.2,0.1-0.2,0.2v5c0,2.2,1.2,2.7,2.9,2.7
		c1.4,0,2.4-0.7,2.4-0.7s0.1,0.4,0.1,0.4c0,0,0.1,0.1,0.2,0.1l1.3,0c0.1,0,0.2-0.1,0.2-0.2l0,0l0-7.3C35.5,36.2,35.5,36.2,35.4,36.2
		L35.4,36.2z M41,35.9c-1.2,0-2,0.5-2,0.5v-3.7c0-0.1-0.1-0.2-0.2-0.2c0,0,0,0,0,0h-2.1c-0.1,0-0.2,0.1-0.2,0.2c0,0,0,0,0,0v10.8
		c0,0.1,0.1,0.2,0.2,0.2c0,0,0,0,0,0h1.4c0.1,0,0.1,0,0.2-0.1c0-0.1,0.1-0.5,0.1-0.5s0.8,0.8,2.5,0.8c1.9,0,3-1,3-4.3
		C43.9,36.3,42.2,35.9,41,35.9L41,35.9z M40.2,42c-0.7,0-1.2-0.3-1.2-0.3v-3.4c0,0,0.5-0.3,1.1-0.3c0.7-0.1,1.5,0.2,1.5,1.9
		C41.5,41.7,41.2,42,40.2,42L40.2,42z M18.3,42c-0.1,0-0.3,0-0.6,0c-0.8,0-1-0.4-1-0.8v-3h1.6c0.1,0,0.2-0.1,0.2-0.2c0,0,0,0,0,0
		v-1.7c0-0.1-0.1-0.2-0.2-0.2c0,0,0,0,0,0h-1.6l0-2.1c0-0.1,0-0.1-0.1-0.1h-2.1c-0.1,0-0.1,0-0.1,0.1v2.1c0,0-1.1,0.3-1.1,0.3
		c-0.1,0-0.1,0.1-0.1,0.2V38c0,0.1,0.1,0.2,0.2,0.2c0,0,0,0,0,0h1.1v3.2c0,2.4,1.7,2.6,2.8,2.6c0.5,0,1.1-0.2,1.2-0.2
		c0.1,0,0.1-0.1,0.1-0.2l0-1.5C18.5,42.1,18.4,42,18.3,42L18.3,42z"/>
</g>
</svg>
